HIERARCHY
ROOT Hips
{
	OFFSET 0.000000 71.427986 0.000000
	CHANNELS 6 Xposition Yposition Zposition Xrotation Yrotation Zrotation
	JOINT Pelvis
	{
		OFFSET 0.000000 0.000000 0.000000
		CHANNELS 3 Xrotation Yrotation Zrotation
		JOINT LeftUpLeg
		{
			OFFSET 6.797100 -2.508499 -1.318700
			CHANNELS 3 Xrotation Yrotation Zrotation
			JOINT LeftLeg
			{
				OFFSET 0.069008 -29.241863 0.690200
				CHANNELS 3 Xrotation Yrotation Zrotation
				JOINT LeftFoot
				{
					OFFSET -0.069008 -29.568123 -0.266800
					CHANNELS 3 Xrotation Yrotation Zrotation
					JOINT LeftToeBase
					{
						OFFSET 3.145500 -8.631000 16.059900
						CHANNELS 3 Xrotation Yrotation Zrotation
						End Site
						{
							OFFSET 0.000000 18.501587 0.000000
						}
					}
				}
			}
			JOINT Left_ShortSleeve
			{
				OFFSET 0.265923 -10.480953 1.153800
				CHANNELS 3 Xrotation Yrotation Zrotation
				End Site
				{
					OFFSET 1.725763 19.823879 0.000000
				}
			}
		}
		JOINT RightUpLeg
		{
			OFFSET -6.797100 -2.508499 -1.318700
			CHANNELS 3 Xrotation Yrotation Zrotation
			JOINT RightLeg
			{
				OFFSET -0.082453 -29.241932 0.688000
				CHANNELS 3 Xrotation Yrotation Zrotation
				JOINT RightFoot
				{
					OFFSET 0.082453 -29.568058 -0.264600
					CHANNELS 3 Xrotation Yrotation Zrotation
					JOINT RightToeBase
					{
						OFFSET -3.115300 -8.682800 16.113400
						CHANNELS 3 Xrotation Yrotation Zrotation
						End Site
						{
							OFFSET 0.000000 18.567114 0.000000
						}
					}
				}
			}
			JOINT Right_ShortSleeve
			{
				OFFSET -0.265923 -10.480953 1.153800
				CHANNELS 3 Xrotation Yrotation Zrotation
				End Site
				{
					OFFSET -1.725766 19.823910 0.000000
				}
			}
		}
	}
	JOINT Spine
	{
		OFFSET 0.000000 13.368103 0.470500
		CHANNELS 3 Xrotation Yrotation Zrotation
		JOINT Spine1
		{
			OFFSET 0.147000 13.837402 0.538800
			CHANNELS 3 Xrotation Yrotation Zrotation
			JOINT Spine2
			{
				OFFSET 0.168000 16.242897 -1.435500
				CHANNELS 3 Xrotation Yrotation Zrotation
				JOINT Neck
				{
					OFFSET 0.217200 18.631500 -1.679100
					CHANNELS 3 Xrotation Yrotation Zrotation
					JOINT Head
					{
						OFFSET 0.000000 6.599396 1.385900
						CHANNELS 3 Xrotation Yrotation Zrotation
						JOINT Hat
						{
							OFFSET -0.532200 27.220596 -10.096100
							CHANNELS 3 Xrotation Yrotation Zrotation
							End Site
							{
								OFFSET 0.000000 22.029861 0.000000
							}
						}
						JOINT HairD
						{
							OFFSET -10.777400 17.437393 -1.325900
							CHANNELS 3 Xrotation Yrotation Zrotation
							JOINT HairD1
							{
								OFFSET -3.290299 -11.051193 1.062200
								CHANNELS 3 Xrotation Yrotation Zrotation
								End Site
								{
									OFFSET 0.000000 11.579437 0.000000
								}
							}
						}
						JOINT HairB
						{
							OFFSET -10.777400 17.437393 1.467900
							CHANNELS 3 Xrotation Yrotation Zrotation
							JOINT HairB1
							{
								OFFSET -1.561200 -12.956299 3.590200
								CHANNELS 3 Xrotation Yrotation Zrotation
								End Site
								{
									OFFSET 0.000000 13.534866 0.000000
								}
							}
						}
						JOINT HairA
						{
							OFFSET 9.713100 17.437393 1.467900
							CHANNELS 3 Xrotation Yrotation Zrotation
							JOINT HairA1
							{
								OFFSET 1.561200 -12.956299 3.590200
								CHANNELS 3 Xrotation Yrotation Zrotation
								End Site
								{
									OFFSET 0.000000 13.534866 0.000000
								}
							}
						}
						JOINT HairC
						{
							OFFSET 9.713100 17.437393 -1.325900
							CHANNELS 3 Xrotation Yrotation Zrotation
							JOINT HairC1
							{
								OFFSET 3.290300 -11.051193 1.062200
								CHANNELS 3 Xrotation Yrotation Zrotation
								End Site
								{
									OFFSET 0.000000 11.579437 0.000000
								}
							}
						}
					}
				}
				JOINT LeftShoulder
				{
					OFFSET 5.101800 15.108002 -2.763700
					CHANNELS 3 Xrotation Yrotation Zrotation
					JOINT LeftArm
					{
						OFFSET 9.825497 2.506317 -1.597400
						CHANNELS 3 Xrotation Yrotation Zrotation
						JOINT LeftForeArm
						{
							OFFSET 21.966244 0.000000 0.000000
							CHANNELS 3 Xrotation Yrotation Zrotation
							JOINT LeftHand
							{
								OFFSET 33.879036 0.000000 0.000000
								CHANNELS 3 Xrotation Yrotation Zrotation
								JOINT LeftHandThumb1
								{
									OFFSET 6.715286 -2.359680 3.363841
									CHANNELS 3 Xrotation Yrotation Zrotation
									JOINT LeftHandThumb2
									{
										OFFSET 2.507072 -1.447464 1.447461
										CHANNELS 3 Xrotation Yrotation Zrotation
										JOINT LeftHandThumb3
										{
											OFFSET 2.898338 -1.673355 1.673357
											CHANNELS 3 Xrotation Yrotation Zrotation
											End Site
											{
												OFFSET -0.295959 3.727692 -0.131651
											}
										}
									}
								}
								JOINT LeftHandIndex1
								{
									OFFSET 14.190811 -0.254547 3.840278
									CHANNELS 3 Xrotation Yrotation Zrotation
									JOINT LeftHandIndex2
									{
										OFFSET 3.551727 0.000000 -0.000000
										CHANNELS 3 Xrotation Yrotation Zrotation
										JOINT LeftHandIndex3
										{
											OFFSET 2.894196 0.000000 0.000000
											CHANNELS 3 Xrotation Yrotation Zrotation
											End Site
											{
												OFFSET -1.000603 2.690872 0.366626
											}
										}
									}
								}
								JOINT LeftHandMiddle1
								{
									OFFSET 13.776489 0.000000 0.000000
									CHANNELS 3 Xrotation Yrotation Zrotation
									JOINT LeftHandMiddle2
									{
										OFFSET 3.438232 0.000000 0.000000
										CHANNELS 3 Xrotation Yrotation Zrotation
										JOINT LeftHandMiddle3
										{
											OFFSET 3.691551 0.000000 0.000000
											CHANNELS 3 Xrotation Yrotation Zrotation
											End Site
											{
												OFFSET -1.082298 3.499527 0.457670
											}
										}
									}
								}
								JOINT LeftHandRing1
								{
									OFFSET 13.966164 -0.268127 -3.067488
									CHANNELS 3 Xrotation Yrotation Zrotation
									JOINT LeftHandRing2
									{
										OFFSET 3.162567 0.000000 0.000000
										CHANNELS 3 Xrotation Yrotation Zrotation
										JOINT LeftHandRing3
										{
											OFFSET 3.324348 0.000000 0.000000
											CHANNELS 3 Xrotation Yrotation Zrotation
											End Site
											{
												OFFSET -0.861900 3.184998 0.405154
											}
										}
									}
								}
								JOINT LeftHandPinky1
								{
									OFFSET 13.131393 -0.168503 -5.746925
									CHANNELS 3 Xrotation Yrotation Zrotation
									JOINT LeftHandPinky2
									{
										OFFSET 2.849182 0.000000 0.000000
										CHANNELS 3 Xrotation Yrotation Zrotation
										JOINT LeftHandPinky3
										{
											OFFSET 2.805038 0.000000 0.000000
											CHANNELS 3 Xrotation Yrotation Zrotation
											End Site
											{
												OFFSET -0.882500 2.642609 0.325652
											}
										}
									}
								}
							}
							JOINT Left_Sleeve
							{
								OFFSET 6.592125 -0.646545 0.805568
								CHANNELS 3 Xrotation Yrotation Zrotation
								End Site
								{
									OFFSET -0.000179 20.275787 -0.000000
								}
							}
						}
					}
				}
				JOINT RightShoulder
				{
					OFFSET -5.731700 15.108002 -2.763700
					CHANNELS 3 Xrotation Yrotation Zrotation
					JOINT RightArm
					{
						OFFSET -9.825497 2.506317 -1.597400
						CHANNELS 3 Xrotation Yrotation Zrotation
						JOINT RightForeArm
						{
							OFFSET -21.966242 0.000000 0.000000
							CHANNELS 3 Xrotation Yrotation Zrotation
							JOINT RightHand
							{
								OFFSET -33.879032 0.000000 0.000000
								CHANNELS 3 Xrotation Yrotation Zrotation
								JOINT RightHandThumb1
								{
									OFFSET -6.715286 -2.359680 3.363841
									CHANNELS 3 Xrotation Yrotation Zrotation
									JOINT RightHandThumb2
									{
										OFFSET -2.507072 -1.447464 1.447461
										CHANNELS 3 Xrotation Yrotation Zrotation
										JOINT RightHandThumb3
										{
											OFFSET -2.898338 -1.673355 1.673357
											CHANNELS 3 Xrotation Yrotation Zrotation
											End Site
											{
												OFFSET 0.295959 3.727692 -0.131651
											}
										}
									}
								}
								JOINT RightHandIndex1
								{
									OFFSET -14.190811 -0.254547 3.840278
									CHANNELS 3 Xrotation Yrotation Zrotation
									JOINT RightHandIndex2
									{
										OFFSET -3.551727 0.000000 -0.000000
										CHANNELS 3 Xrotation Yrotation Zrotation
										JOINT RightHandIndex3
										{
											OFFSET -2.894196 0.000000 0.000000
											CHANNELS 3 Xrotation Yrotation Zrotation
											End Site
											{
												OFFSET 1.000603 2.690872 0.366626
											}
										}
									}
								}
								JOINT RightHandMiddle1
								{
									OFFSET -13.776489 0.000000 0.000000
									CHANNELS 3 Xrotation Yrotation Zrotation
									JOINT RightHandMiddle2
									{
										OFFSET -3.438232 0.000000 0.000000
										CHANNELS 3 Xrotation Yrotation Zrotation
										JOINT RightHandMiddle3
										{
											OFFSET -3.691551 0.000000 0.000000
											CHANNELS 3 Xrotation Yrotation Zrotation
											End Site
											{
												OFFSET 1.082298 3.499527 0.457670
											}
										}
									}
								}
								JOINT RightHandRing1
								{
									OFFSET -13.966164 -0.268127 -3.067488
									CHANNELS 3 Xrotation Yrotation Zrotation
									JOINT RightHandRing2
									{
										OFFSET -3.162567 0.000000 0.000000
										CHANNELS 3 Xrotation Yrotation Zrotation
										JOINT RightHandRing3
										{
											OFFSET -3.324348 0.000000 0.000000
											CHANNELS 3 Xrotation Yrotation Zrotation
											End Site
											{
												OFFSET 0.861900 3.184998 0.405154
											}
										}
									}
								}
								JOINT RightHandPinky1
								{
									OFFSET -13.131393 -0.168503 -5.746925
									CHANNELS 3 Xrotation Yrotation Zrotation
									JOINT RightHandPinky2
									{
										OFFSET -2.849182 0.000000 0.000000
										CHANNELS 3 Xrotation Yrotation Zrotation
										JOINT RightHandPinky3
										{
											OFFSET -2.805038 0.000000 0.000000
											CHANNELS 3 Xrotation Yrotation Zrotation
											End Site
											{
												OFFSET 0.882500 2.642609 0.325652
											}
										}
									}
								}
							}
							JOINT Right_Sleeve
							{
								OFFSET -6.592125 -0.646545 0.805568
								CHANNELS 3 Xrotation Yrotation Zrotation
								End Site
								{
									OFFSET 0.000179 20.275787 -0.000000
								}
							}
						}
					}
				}
				JOINT Bind_Right_JacketString
				{
					OFFSET -3.534800 11.969597 7.200700
					CHANNELS 3 Xrotation Yrotation Zrotation
					JOINT Bind_Right_JacketString1
					{
						OFFSET -0.319900 -6.102600 2.794100
						CHANNELS 3 Xrotation Yrotation Zrotation
						End Site
						{
							OFFSET 0.000000 6.719452 0.000000
						}
					}
				}
				JOINT Bind_Left_JacketString
				{
					OFFSET 2.904800 11.969597 7.200700
					CHANNELS 3 Xrotation Yrotation Zrotation
					JOINT Bind_Left_JacketString1
					{
						OFFSET 0.364800 -5.904503 3.186800
						CHANNELS 3 Xrotation Yrotation Zrotation
						End Site
						{
							OFFSET 0.000000 6.719513 0.000000
						}
					}
				}
				JOINT HairE
				{
					OFFSET 5.915200 17.612701 -11.592200
					CHANNELS 3 Xrotation Yrotation Zrotation
					JOINT HairE1
					{
						OFFSET 0.289200 -7.171898 -1.284500
						CHANNELS 3 Xrotation Yrotation Zrotation
						End Site
						{
							OFFSET 0.000000 7.291756 0.000000
						}
					}
				}
				JOINT HairF
				{
					OFFSET -0.864800 17.612701 -11.592200
					CHANNELS 3 Xrotation Yrotation Zrotation
					JOINT HairF1
					{
						OFFSET 0.000000 -14.087097 -2.127501
						CHANNELS 3 Xrotation Yrotation Zrotation
						End Site
						{
							OFFSET 0.000000 14.246841 0.000000
						}
					}
				}
				JOINT HairG
				{
					OFFSET -8.087700 17.612701 -11.592200
					CHANNELS 3 Xrotation Yrotation Zrotation
					JOINT HairG1
					{
						OFFSET -0.293600 -6.081398 -0.910100
						CHANNELS 3 Xrotation Yrotation Zrotation
						End Site
						{
							OFFSET 0.000000 6.156120 0.000000
						}
					}
				}
			}
		}
	}
	JOINT Pouch
	{
		OFFSET 0.000000 4.394501 10.847300
		CHANNELS 3 Xrotation Yrotation Zrotation
		End Site
		{
			OFFSET 0.000000 21.880577 0.000000
		}
	}
	JOINT Bag
	{
		OFFSET -13.229000 4.813004 -0.593300
		CHANNELS 3 Xrotation Yrotation Zrotation
		End Site
		{
			OFFSET 0.000000 21.880577 0.000000
		}
	}
	JOINT OccupyGuyFacialAnim_Joint
	{
		OFFSET 1.000000 -70.206398 -1.655000
		CHANNELS 3 Xrotation Yrotation Zrotation
		End Site
		{
			OFFSET 0.000000 21.880577 0.000000
		}
	}
}
MOTION
Frames: 4
Frame Time: 0.016667
-0.365472 88.314575 -1.253391 4.584690 -38.906387 4.450039 0.000000 -0.000002 -0.000000 -74.179106 -15.805519 32.189425 62.148827 1.062039 7.411858 5.477156 -0.024453 0.715361 -0.000001 -0.000000 -0.000000 -0.000000 0.000001 -0.000001 -111.030073 -41.572127 -0.005766 124.921360 21.542960 -13.341703 7.079341 -1.542015 23.086403 -0.000000 0.000000 0.000001 0.000001 0.000002 -0.000000 30.124713 -3.460660 -10.138584 12.785635 1.087589 -3.033124 12.733213 1.050409 -3.241311 -8.164142 20.999266 -13.038082 -23.845978 13.475285 4.639313 0.000000 0.000000 0.000000 0.000000 0.000000 0.000000 0.000000 0.000000 0.000001 0.000000 0.000000 -0.000000 0.000000 0.000000 -0.000000 0.000000 0.000000 -0.000000 0.000000 0.000000 -0.000000 0.000000 0.000000 0.000000 0.000000 0.000000 0.000000 9.829645 -9.813822 -1.458542 -62.537731 12.081221 3.106149 46.615577 -25.819855 31.530093 -9.264685 7.312764 9.666254 40.109938 -15.297061 -0.360442 5.639827 28.097621 11.338692 0.000000 -0.000000 0.000001 6.882246 2.840089 -61.140411 8.247915 7.639954 -89.897953 0.000003 -0.000001 0.000001 -2.345507 4.688860 -62.655320 8.754122 9.897109 -87.051102 0.000003 0.000000 0.000001 -9.042534 10.045645 -60.766322 8.524075 9.508824 -66.893076 -0.000003 0.000000 -0.000002 -17.946945 14.754966 -51.485799 8.868433 8.667050 -84.811962 -0.000003 -0.000001 -0.000001 -0.000001 0.000001 -0.000001 14.990512 20.897812 -4.160214 -28.001556 -11.258123 -3.541421 -45.194552 43.243997 34.197692 -6.582784 -10.157726 -10.545300 -1.525708 -5.490520 13.054251 1.517231 -22.702500 -8.022587 -0.000002 -0.000001 0.000001 1.268144 4.823972 -8.200812 0.525040 1.162834 0.172180 -0.000001 -0.000000 0.000000 0.868467 -5.217179 -11.333478 1.480007 -3.605080 20.026699 0.000001 0.000000 0.000004 1.814743 -11.814412 -9.180216 1.792562 -3.024111 21.110259 0.000000 -0.000000 -0.000004 2.626216 -21.407336 -3.836551 5.351743 -1.276948 0.651246 0.000002 -0.000000 0.000000 -0.000001 0.000001 0.000003 -0.000001 -0.000003 0.000003 -0.000001 0.000001 -0.000000 -0.000001 -0.000003 0.000001 -0.000001 -0.000003 0.000001 -0.000001 -0.000003 0.000003 -0.000001 0.000001 -0.000000 -0.000001 -0.000003 0.000001 -0.000001 -0.000003 0.000001 -0.000001 -0.000003 0.000003 -0.000001 0.000001 -0.000000 0.000000 -0.000002 -0.000000 0.000000 -0.000002 -0.000000 0.000000 -0.000002 -0.000000 
-0.376867 88.292686 -1.224190 4.516866 -38.653881 4.352737 -0.000000 -0.000001 -0.000000 -74.373240 -15.646056 31.907109 62.150275 2.573705 8.174743 5.612696 -0.742039 1.985073 0.000000 0.000000 -0.000000 -0.000001 0.000001 0.000000 -111.351823 -41.465949 0.011141 125.014032 21.515839 -13.332237 8.060900 -1.573865 23.741580 -0.000000 -0.000000 -0.000003 0.000001 0.000002 0.000002 30.124297 -3.508678 -10.142769 12.788143 1.087580 -3.033125 12.735774 1.050414 -3.241316 -8.920865 20.968727 -13.048925 -25.340149 14.061499 5.597398 0.000001 -0.000000 -0.000000 0.000001 -0.000000 -0.000000 0.000001 -0.000000 -0.000000 0.000001 -0.000000 -0.000001 -0.000000 0.000000 -0.000000 0.000001 -0.000000 -0.000001 -0.000000 0.000000 -0.000000 0.000001 -0.000000 -0.000000 0.000001 -0.000000 -0.000000 9.984057 -9.728886 -0.757583 -62.955807 11.135336 3.775609 46.589233 -25.768468 31.469605 -9.041967 6.729828 9.359716 40.109938 -15.297059 -0.360441 5.639829 28.097624 11.338689 0.000001 -0.000001 0.000001 6.882248 2.840090 -61.140411 8.247920 7.639958 -89.897953 0.000000 0.000000 0.000002 -2.345506 4.688859 -62.655320 8.754123 9.897104 -87.051102 -0.000001 0.000001 0.000003 -9.042534 10.045643 -60.766315 8.524079 9.508825 -66.893076 0.000004 0.000003 -0.000002 -17.946942 14.754971 -51.485795 8.868431 8.667054 -84.811955 -0.000002 0.000001 -0.000000 0.000001 -0.000001 -0.000002 15.302919 20.568548 -4.925043 -28.808321 -11.687208 -3.682304 -45.727874 43.802198 34.969206 -6.236514 -12.921144 -11.831697 -1.525710 -5.490519 13.054248 1.517234 -22.702497 -8.022580 -0.000000 -0.000001 -0.000000 1.268148 4.826746 -8.222271 0.524603 1.165250 0.150703 -0.000000 0.000000 0.000000 0.868224 -5.213086 -11.361332 1.477424 -3.598026 19.974675 0.000001 -0.000001 -0.000001 1.809770 -11.815192 -9.204581 1.789870 -3.018422 21.069318 -0.000002 0.000001 -0.000000 2.625012 -21.404746 -3.858342 5.348395 -1.270560 0.567671 -0.000001 0.000001 -0.000001 -0.000000 -0.000002 -0.000000 0.000002 -0.000002 -0.000000 0.000002 -0.000002 0.000001 0.000002 -0.000002 -0.000000 0.000002 -0.000002 -0.000000 0.000002 -0.000002 -0.000000 0.000002 -0.000002 0.000002 0.000002 -0.000002 -0.000000 0.000002 -0.000002 -0.000000 0.000002 -0.000002 -0.000000 0.000002 -0.000002 0.000002 -0.000000 -0.000001 -0.000000 -0.000000 -0.000001 -0.000000 -0.000000 -0.000001 -0.000000 
-0.372882 88.289658 -1.222299 4.453688 -38.437293 4.233065 -0.000000 0.000001 -0.000000 -74.392631 -15.701242 31.909838 62.198817 2.490474 8.125797 5.711867 -0.810562 2.162828 0.000001 0.000001 -0.000004 -0.000000 -0.000001 0.000003 -111.559112 -41.452954 0.006405 125.163189 21.394459 -13.310001 8.218694 -1.580473 23.895415 -0.000000 0.000000 0.000001 0.000003 0.000001 0.000000 30.124450 -3.518313 -10.138169 12.798053 1.087541 -3.033109 12.745768 1.050451 -3.241331 -8.938867 20.977116 -13.011272 -25.364812 13.878970 5.705350 -0.000001 0.000000 -0.000001 -0.000001 0.000000 -0.000001 -0.000001 0.000000 -0.000001 -0.000001 0.000000 -0.000001 -0.000001 0.000000 0.000000 -0.000001 0.000000 -0.000001 -0.000001 0.000000 0.000000 -0.000001 0.000000 -0.000001 -0.000001 0.000000 -0.000001 10.133432 -9.721070 -0.028972 -63.361377 10.080283 4.356415 46.550027 -25.690312 31.376748 -8.810570 6.229387 9.041429 40.109941 -15.297062 -0.360441 5.639828 28.097624 11.338687 0.000002 0.000002 0.000001 6.882250 2.840092 -61.140418 8.247918 7.639958 -89.897959 -0.000002 0.000002 0.000002 -2.345506 4.688860 -62.655320 8.754122 9.897112 -87.051102 -0.000000 -0.000003 0.000002 -9.042533 10.045645 -60.766315 8.524076 9.508819 -66.893070 -0.000002 0.000002 -0.000001 -17.946940 14.754967 -51.485795 8.868429 8.667050 -84.811962 0.000001 -0.000004 0.000002 -0.000003 0.000001 0.000002 15.618588 20.231676 -5.707900 -29.640122 -12.140679 -3.854855 -46.313778 44.391807 35.807820 -5.972659 -16.119258 -13.160365 -1.525708 -5.490521 13.054245 1.517237 -22.702500 -8.022587 -0.000001 -0.000002 -0.000001 1.268123 4.834603 -8.283329 0.527607 1.173659 0.089703 -0.000000 -0.000000 0.000000 0.867565 -5.201533 -11.440757 1.470008 -3.577903 19.826704 0.000001 -0.000001 -0.000003 1.800679 -11.816961 -9.274030 1.782248 -3.002215 20.952818 -0.000003 0.000002 -0.000001 2.621629 -21.397321 -3.920216 5.338788 -1.252258 0.329960 -0.000002 0.000002 0.000001 -0.000000 0.000001 -0.000002 0.000001 -0.000001 0.000001 0.000002 0.000001 0.000001 0.000001 -0.000001 0.000001 0.000001 -0.000001 0.000001 0.000001 -0.000001 0.000001 0.000002 0.000001 0.000001 0.000001 -0.000001 0.000001 0.000001 -0.000001 0.000001 0.000001 -0.000001 0.000001 0.000002 0.000001 0.000001 -0.000000 0.000001 -0.000000 -0.000000 0.000001 -0.000000 -0.000000 0.000001 -0.000000 
-0.367109 88.285721 -1.224571 4.391576 -38.222213 4.113027 -0.000000 0.000004 -0.000000 -74.426864 -15.775302 31.924219 62.250549 2.337077 8.041050 5.909449 -0.818100 2.303185 0.000001 0.000001 -0.000001 0.000000 0.000003 -0.000000 -111.777665 -41.447999 0.002395 125.298236 21.238658 -13.287386 8.396039 -1.587386 24.069211 -0.000000 0.000000 0.000000 0.000002 0.000002 -0.000000 30.129692 -3.526901 -10.127129 12.814279 1.087510 -3.033103 12.762080 1.050445 -3.241342 -8.900561 20.965571 -12.984462 -25.327571 13.653082 5.711546 0.000000 0.000001 0.000001 0.000000 0.000001 0.000001 0.000000 0.000001 0.000001 0.000000 0.000001 0.000000 -0.000001 0.000000 -0.000001 0.000000 0.000001 0.000000 -0.000001 0.000000 -0.000001 0.000000 0.000001 0.000001 0.000000 0.000001 0.000001 10.281103 -9.782283 0.722438 -63.758614 8.941654 4.845704 46.500249 -25.586435 31.254324 -8.574774 5.831114 8.725817 40.109941 -15.297057 -0.360442 5.639828 28.097621 11.338692 -0.000000 -0.000000 -0.000000 6.882246 2.840091 -61.140411 8.247914 7.639958 -89.897959 0.000002 0.000003 -0.000001 -2.345510 4.688862 -62.655320 8.754118 9.897109 -87.051096 0.000003 0.000001 -0.000003 -9.042538 10.045646 -60.766322 8.524078 9.508816 -66.893076 -0.000002 0.000001 -0.000001 -17.946947 14.754969 -51.485799 8.868429 8.667050 -84.811962 -0.000000 -0.000000 0.000001 -0.000002 -0.000000 -0.000000 15.932601 19.880778 -6.500306 -30.491047 -12.602409 -4.047634 -46.939645 44.997109 36.694884 -5.836494 -19.436203 -14.502612 -1.525708 -5.490519 13.054245 1.517232 -22.702500 -8.022587 -0.000001 -0.000001 0.000000 1.272693 4.847376 -8.379332 0.532370 1.186890 0.002691 0.000001 -0.000002 -0.000000 0.866602 -5.183220 -11.565172 1.458486 -3.546340 19.594626 0.000001 -0.000001 0.000001 1.786140 -11.819737 -9.382934 1.770359 -2.976802 20.770149 -0.000002 -0.000000 -0.000003 2.616281 -21.385715 -4.017275 5.323947 -1.223537 -0.000018 -0.000002 -0.000000 0.000001 -0.000000 0.000002 0.000003 0.000001 0.000000 -0.000000 0.000001 0.000003 -0.000002 0.000001 0.000000 0.000000 0.000001 0.000000 0.000000 0.000001 0.000000 -0.000000 0.000001 0.000003 -0.000001 0.000001 0.000000 0.000000 0.000001 0.000000 0.000000 0.000001 0.000000 -0.000000 0.000001 0.000003 -0.000001 -0.000000 0.000004 -0.000000 -0.000000 0.000004 -0.000000 -0.000000 0.000004 -0.000000 
